<svg version="1.1" id="Layer_1" xmlns="http://www.w3.org/2000/svg" x="0" y="0" viewBox="0 0 512 512" xml:space="preserve"><style>.st1{fill:#fff}</style><circle cx="256" cy="256" r="256" fill="#84b7fa"/><path class="st1" d="M368.23 363.352c6.143 0 11.465-2.028 15.99-6.032l-77.42-77.422c-1.857 1.33-3.657 2.623-5.358 3.853-5.794 4.269-10.496 7.6-14.107 9.986-3.61 2.393-8.413 4.831-14.41 7.32-6 2.493-11.59 3.735-16.775 3.735h-.304c-5.186 0-10.775-1.241-16.775-3.734-6-2.49-10.803-4.928-14.41-7.32-3.61-2.388-8.31-5.718-14.106-9.987a670.345 670.345 0 0 0-5.344-3.874l-77.434 77.443c4.524 4.004 9.85 6.032 15.992 6.032H368.23zM134.773 231.145c-5.793-3.862-10.93-8.286-15.403-13.268v117.79l68.237-68.236c-13.652-9.53-31.24-21.612-52.834-36.286zm242.609 0c-20.77 14.058-38.423 26.16-52.961 36.313l68.21 68.213V217.877c-4.374 4.882-9.456 9.302-15.25 13.268z"/><path class="st1" d="M368.23 148.647H143.77c-7.831 0-13.852 2.644-18.07 7.927-4.22 5.286-6.327 11.896-6.327 19.824 0 6.403 2.796 13.342 8.386 20.817 5.59 7.472 11.537 13.34 17.84 17.61 3.456 2.441 13.877 9.686 31.262 21.73a9994.97 9994.97 0 0 1 24.56 17.065 4391.299 4391.299 0 0 1 15.391 10.766c.489.343 1.257.892 2.277 1.622 1.1.789 2.49 1.79 4.205 3.03 3.304 2.389 6.049 4.32 8.235 5.796 2.183 1.476 4.827 3.124 7.93 4.955 3.1 1.828 6.024 3.203 8.769 4.117 2.745.914 5.286 1.372 7.624 1.372h.304c2.337 0 4.878-.458 7.624-1.372 2.744-.914 5.666-2.286 8.768-4.117 3.1-1.83 5.741-3.483 7.931-4.955 2.186-1.476 4.93-3.407 8.235-5.797 1.712-1.238 3.103-2.24 4.202-3.027 1.02-.732 1.788-1.278 2.28-1.624a143867.207 143867.207 0 0 1 71.365-49.561c7.42-5.183 13.62-11.438 18.602-18.755 4.974-7.317 7.467-14.993 7.467-23.024 0-6.71-2.417-12.452-7.242-17.234-4.83-4.776-10.55-7.165-17.158-7.165z"/></svg>