<svg xmlns="http://www.w3.org/2000/svg" viewBox="0 0 512 512"><circle cx="256" cy="256" r="256" fill="#84b7fa"/><path d="M345.248 100.716c-6.53-6.538-14.272-9.803-23.214-9.803H189.968c-8.945 0-16.682 3.268-23.217 9.803-6.535 6.531-9.802 14.271-9.802 23.213v264.14c0 8.941 3.267 16.68 9.802 23.213 6.535 6.536 14.272 9.805 23.217 9.805h132.066c8.94 0 16.684-3.272 23.213-9.805 6.536-6.533 9.804-14.272 9.804-23.213V123.93c0-8.942-3.264-16.678-9.803-23.213zm-109.882 23.213h41.275c2.752 0 4.124 1.376 4.124 4.128 0 2.75-1.373 4.129-4.124 4.129h-41.275c-2.752 0-4.128-1.378-4.128-4.13 0-2.751 1.376-4.127 4.128-4.127zm35.213 278.715c-4.044 4.038-8.9 6.06-14.577 6.06-5.674 0-10.531-2.022-14.573-6.06-4.042-4.045-6.063-8.904-6.063-14.575 0-5.676 2.023-10.534 6.063-14.575 4.04-4.038 8.9-6.066 14.573-6.066 5.677 0 10.534 2.028 14.577 6.066 4.042 4.04 6.06 8.899 6.06 14.575s-2.021 10.531-6.06 14.575zm59.714-55.844c0 2.232-.816 4.174-2.452 5.804-1.638 1.632-3.568 2.445-5.8 2.445H189.967c-2.235 0-4.17-.816-5.803-2.445s-2.45-3.572-2.45-5.804V165.205c0-2.235.815-4.171 2.45-5.803 1.634-1.63 3.568-2.452 5.803-2.452h132.066c2.239 0 4.17.818 5.807 2.452 1.636 1.632 2.448 3.568 2.448 5.803v181.594h.004z" fill="#fff"/></svg>