<svg version="1.2" baseProfile="tiny" xmlns="http://www.w3.org/2000/svg" viewBox="0 0 512 512"><path fill="#222" d="M452.267 56.889c-5.69-17.067-22.756-28.445-39.823-28.445H99.556c-19.912 0-34.134 11.378-39.823 28.445L0 227.556V455.11c0 17.067 11.378 28.445 28.444 28.445H56.89c17.067 0 28.444-11.378 28.444-28.445v-28.444h341.334v28.444c0 17.067 11.377 28.445 28.444 28.445h28.445c17.066 0 28.444-11.378 28.444-28.445V227.556L452.267 56.889zM99.556 341.333c-22.756 0-42.667-19.91-42.667-42.666S76.8 256 99.556 256s42.666 19.911 42.666 42.667-19.91 42.666-42.666 42.666zm312.888 0c-22.755 0-42.666-19.91-42.666-42.666S389.688 256 412.444 256s42.667 19.911 42.667 42.667-19.911 42.666-42.667 42.666zM56.89 199.111l42.667-128h312.888l42.667 128H56.89z"/></svg>