<svg xmlns="http://www.w3.org/2000/svg" viewBox="0 0 512 512"><path d="M452.3 56.9c-5.7-17.1-22.8-28.4-39.8-28.4H99.6c-19.9 0-34.1 11.4-39.8 28.4L0 227.6v227.6c0 17.1 11.4 28.4 28.4 28.4h28.4c17.1 0 28.4-11.4 28.4-28.4v-28.4h341.3v28.4c0 17.1 11.4 28.4 28.4 28.4h28.4c17.1 0 28.4-11.4 28.4-28.4V227.6L452.3 56.9zM99.6 341.3c-22.8 0-42.7-19.9-42.7-42.7S76.8 256 99.6 256s42.7 19.9 42.7 42.7-20 42.6-42.7 42.6zm312.8 0c-22.8 0-42.7-19.9-42.7-42.7s19.9-42.7 42.7-42.7 42.7 19.9 42.7 42.7-19.9 42.7-42.7 42.7zM56.9 199.1l42.7-128h312.9l42.7 128H56.9z" fill="#fcfcfc"/></svg>