<svg xmlns="http://www.w3.org/2000/svg" viewBox="0 -46 512 512" width="512" height="512"><path d="M383.3 60H362V30h30V0h-90v30h30v30h-90V30h30V0h-90v30h30v30h-90V30h30V0H62v30h30v30H70.7L0 128.7V180h452v-51.3zM62 255v-45H0v141.3L70.7 420h312.6l68.7-68.7V330H137c-41.398 0-75-33.602-75-75zm300-45v45c0 24.898 20.098 45 45 45h45v-90zm0 0" fill="#4b90ec"/><path d="M272 210v45c0 24.898 20.098 45 45 45h30c-9.3-12.3-15-28.2-15-45v-45zm-90 0v45c0 24.898 20.098 45 45 45h30c-9.3-12.3-15-28.2-15-45v-45zm-90 0v45c0 24.898 20.098 45 45 45h30c-9.3-12.3-15-28.2-15-45v-45zm390-30h-30v30h30v90h-30v30h30v30h30V150h-30zm0 0" fill="#4b90ec"/></svg>