<svg xmlns="http://www.w3.org/2000/svg" height="512" viewBox="-61 0 512 512" width="512"><path d="M390 346V105c0-24.813-20.188-45-45-45h-15V0H30v421h300v-30h15c24.813 0 45-20.188 45-45zm-210 30c-33.09 0-60-26.91-60-60 0-26.477 29.496-62.719 60-97.457 53.574 61.016 60 83.121 60 97.457 0 33.09-26.91 60-60 60zm90-180H90V45h180zm90 150c0 8.277-6.723 15-15 15h-15V241h30zm0-226h-30V90h15c8.277 0 15 6.723 15 15zm0 0" fill="#4b90ec"/><path d="M150 316c0 16.54 13.46 30 30 30s30-13.46 30-30c0-9.285-14.063-31.785-30-51.77-15.906 19.88-30 42.204-30 51.77zM120 75h120v91H120zM0 451h360v61H0zm0 0" fill="#4b90ec"/></svg>