<svg xmlns="http://www.w3.org/2000/svg" viewBox="0 0 60 60" width="512" height="512"><path d="M43.594 12.5c-9.046 0-16.406 7.851-16.406 17.5 0 6.341-4.836 11.5-10.781 11.5S5.625 36.341 5.625 30s4.836-11.5 10.781-11.5c2.146 0 4.218.67 5.992 1.938a11.08 11.08 0 0 1 1.645 1.445c1.061 1.136 2.914 1.14 3.977.009 1.099-1.167 1.103-3.07.009-4.243a16.831 16.831 0 0 0-2.499-2.194c-2.704-1.933-5.858-2.954-9.124-2.954C7.36 12.5 0 20.351 0 30s7.36 17.5 16.406 17.5S32.812 39.649 32.812 30c0-6.341 4.836-11.5 10.781-11.5S54.375 23.659 54.375 30s-4.836 11.5-10.781 11.5c-2.879 0-5.586-1.195-7.622-3.366-1.062-1.133-2.915-1.133-3.978 0a3.085 3.085 0 0 0-.823 2.121c0 .802.293 1.556.824 2.121 3.098 3.305 7.218 5.124 11.599 5.124C52.64 47.5 60 39.649 60 30s-7.36-17.5-16.406-17.5z" fill="#FFF"/></svg>